<svg version="1.2" baseProfile="tiny-ps" xmlns="http://www.w3.org/2000/svg" viewBox="0 0 1440 374" width="193" height="50">
	<title>Kruzty Horizontal Dark</title>
	<style>
		tspan { white-space:pre }
		.s0 { fill: #151827 } 
		.s1 { fill: #3998d3 } 
		.s2 { fill: #88c946 } 
		.s3 { fill: #1c6836 } 
		.s4 { fill: #2c2e35 } 
		.s5 { fill: #1876c0 } 
		.s6 { fill: #3ab3e4 } 
		.s7 { fill: #ffffff } 
	</style>
	<g id="Layer 1">
		<g id="&lt;Group&gt;">
			<g id="&lt;Group&gt;">
				<g id="&lt;Group&gt;">
					<path id="&lt;Path&gt;" class="s0" d="m325.14 360.49h-270.27c-22.15 0-40.11-17.96-40.11-40.11v-270.27c0-22.15 17.96-40.11 40.11-40.11h270.27c22.15 0 40.11 17.96 40.11 40.11v270.27c0 22.15-17.96 40.11-40.11 40.11z" />
				</g>
				<g id="&lt;Group&gt;">
					<path id="&lt;Path&gt;" class="s1" d="m134.82 176.3c-0.15 0.58-0.24 1.11-0.34 1.65c0.05-0.39 0.1-0.73 0.19-1.11c0-0.15 0.05-0.34 0.15-0.53z" />
					<path id="&lt;Path&gt;" class="s2" d="m150.25 219.17c-0.39-0.29-0.77-0.58-1.11-0.92l0.05-0.15l1.06 1.06z" />
					<path id="&lt;Path&gt;" class="s3" d="m134.82 176.3c-0.15 0.58-0.24 1.11-0.34 1.65c0.05-0.39 0.1-0.73 0.19-1.11c0-0.15 0.05-0.34 0.15-0.53z" />
					<path id="&lt;Path&gt;" class="s3" d="m135.35 196.48c-0.05-0.05-0.1-0.15-0.1-0.19c-0.15-0.39-0.24-0.77-0.29-1.16c-0.1-0.48-0.19-0.92-0.29-1.35c0.24 0.92 0.44 1.84 0.68 2.71z" />
					<path id="&lt;Path&gt;" class="s3" d="m134.82 176.3c-0.15 0.58-0.24 1.11-0.34 1.65c0.05-0.39 0.1-0.73 0.19-1.11c0-0.15 0.05-0.34 0.15-0.53z" />
					<path id="&lt;Path&gt;" class="s3" d="m135.35 196.48c-0.05-0.05-0.1-0.15-0.1-0.19c-0.15-0.39-0.24-0.77-0.29-1.16c-0.1-0.48-0.19-0.92-0.29-1.35c0.24 0.92 0.44 1.84 0.68 2.71z" />
					<path id="&lt;Path&gt;" class="s4" d="m135.35 196.48c-0.05-0.05-0.1-0.15-0.1-0.19c-0.15-0.39-0.24-0.77-0.29-1.16c-0.1-0.48-0.19-0.92-0.29-1.35c0.24 0.92 0.44 1.84 0.68 2.71z" />
					<path id="&lt;Path&gt;" class="s2" d="m133.12 134.21l1.02-0.97l-1.02 1.02v-0.05z" />
					<path id="&lt;Path&gt;" class="s2" d="m150.25 151.34l-0.97 0.97l-0.1-0.1c0.34-0.29 0.68-0.58 1.06-0.87z" />
					<g id="&lt;Group&gt;">
						<path id="&lt;Path&gt;" class="s5" d="m237.34 185.26l-11.23 11.23l-5.85 5.9l-13.4 13.35c-15.43 15.43-39.82 16.6-56.61 3.44c-0.39-0.29-0.77-0.58-1.11-0.92c-0.97-0.77-1.89-1.6-2.76-2.52c-5.42-5.42-9.14-12.05-10.98-19.02c-0.05-0.1-0.05-0.15-0.05-0.24c-0.24-0.87-0.44-1.79-0.68-2.71v-0.05c-0.19-0.92-0.34-1.84-0.48-2.76c-0.15-1.26-0.29-2.56-0.34-3.87c-0.05-1.26-0.05-2.47 0-3.68c0.05-1.16 0.15-2.37 0.29-3.53c0.05-0.1 0.05-0.19 0.05-0.29v-0.05c0.1-0.53 0.19-1.06 0.29-1.6c0.1-0.53 0.19-1.06 0.34-1.65c0-0.19 0.05-0.39 0.1-0.53c0.05-0.24 0.1-0.48 0.19-0.73c0.19-0.92 0.48-1.79 0.77-2.66c0.1-0.34 0.24-0.68 0.34-1.02c0-0.05 0.05-0.1 0.05-0.15c0.15-0.44 0.29-0.87 0.48-1.31c0.15-0.39 0.29-0.77 0.48-1.16c0-0.05 0.05-0.05 0.05-0.1c0.29-0.73 0.58-1.4 0.92-2.13c0.24-0.53 0.53-1.06 0.77-1.6c0.15-0.29 0.34-0.58 0.48-0.92c0.15-0.24 0.29-0.53 0.44-0.77c0.15-0.29 0.29-0.58 0.48-0.82c0.15-0.24 0.34-0.53 0.48-0.77c0.29-0.39 0.53-0.82 0.82-1.21c0.58-0.82 1.16-1.65 1.84-2.47c0.39-0.48 0.77-0.97 1.21-1.45c0.53-0.58 1.06-1.16 1.65-1.74c0.87-0.92 1.84-1.74 2.81-2.56c0.34-0.29 0.68-0.58 1.06-0.87c7.69-6.1 17.03-9.1 26.37-9.1c10.93 0 21.92 4.16 30.24 12.53l13.35 13.35l17.13 17.13z" />
					</g>
					<g id="&lt;Group&gt;">
						<path id="&lt;Path&gt;" class="s6" d="m296.28 304.67c-16.74 16.74-43.84 16.74-60.53 0l-85.5-85.5c16.79 13.16 41.17 12 56.61-3.44l13.4-13.35l5.85-5.9l11.23-11.23l58.93 58.93c16.69 16.69 16.69 43.79 0 60.48z" />
					</g>
					<g id="&lt;Group&gt;">
						<path id="&lt;Path&gt;" class="s7" d="m134.19 237.32l79.88 79.88h-95.8c-25.98 0-47.08-21.05-47.08-47.08v-169.73c0-26.03 21.1-47.13 47.08-47.13h95.8l-79.93 79.98l-1.02 1.02l-3.82 3.82c-1.84 1.79-3.48 3.73-5.13 5.81c-1.02 1.21-1.93 2.42-2.76 3.73c-0.77 1.06-1.5 2.13-1.94 2.9c-0.24 0.39-0.48 0.82-0.73 1.26c-0.58 0.97-1.16 1.98-1.65 3c-0.39 0.68-0.97 1.74-1.5 3.05c-0.29 0.63-0.53 1.16-0.77 1.79c-0.53 1.26-1.02 2.52-1.45 3.77c-1.5 4.16-2.56 8.47-3.14 12.77l-0.24 1.74v0.39c-0.15 1.4-0.29 2.76-0.29 4.06c-0.1 1.89-0.1 3.77-0.05 5.61c0.1 1.93 0.29 3.87 0.48 5.71l0.1 0.58c0.58 4.35 1.64 8.66 3.14 12.87c0.44 1.26 0.92 2.52 1.45 3.77c0.73 1.84 1.45 3.34 2.03 4.4c0.53 1.11 1.16 2.23 1.79 3.29c0.29 0.58 0.63 1.11 1.02 1.69c0.58 0.97 1.21 1.89 1.93 2.95c2.18 3.19 4.69 6.19 7.65 9.19l3.87 3.87l1.06 1.02z" />
					</g>
					<path id="&lt;Path&gt;" class="s4" d="m134.82 176.3c-0.15 0.58-0.24 1.11-0.34 1.65c0.05-0.39 0.1-0.73 0.19-1.11c0-0.15 0.05-0.34 0.15-0.53z" />
					<path id="&lt;Path&gt;" class="s4" d="m135.35 196.48c-0.05-0.05-0.1-0.15-0.1-0.19c-0.15-0.39-0.24-0.77-0.29-1.16c-0.1-0.48-0.19-0.92-0.29-1.35c0.24 0.92 0.44 1.84 0.68 2.71z" />
					<g id="&lt;Group&gt;">
						<path id="&lt;Path&gt;" class="s6" d="m308.81 96.08c0 10.93-4.21 21.87-12.53 30.24l-41.8 41.8v0.05l-17.13 17.08l-17.13-17.13l-13.35-13.35c-8.32-8.37-19.31-12.53-30.24-12.53c-9.34 0-18.68 3-26.37 9.1l85.5-85.5c16.69-16.74 43.79-16.74 60.53 0c8.32 8.37 12.53 19.31 12.53 30.24z" />
					</g>
				</g>
			</g>
			<g id="&lt;Group&gt;">
				<g id="&lt;Group&gt;">
					<path id="&lt;Compound Path&gt;" class="s7" d="m555.25 92.08l-84.25 90.76l91.3 95.63v2.17l-44.16 0l-79.38-83.98v83.98l-35.76 0v-189.64l35.76 0v80.19l72.06-80.19h44.43v1.08z" />
					<path id="&lt;Compound Path&gt;" fill-rule="evenodd" class="s7" d="m738.7 279.94l-42.53 0l-55.27-63.39h-34.41v63.39h-35.76v-189.91c30.07 0 60.14 0.27 90.21 0.27c44.7 0.27 68.27 30.07 68.27 62.85c0 26.01-11.92 52.29-47.95 59.6l57.43 64.75v2.44zm-132.2-156.32v60.68h54.45c22.76 0 32.51-15.17 32.51-30.34c0-15.17-10.02-30.34-32.51-30.34h-54.45z" />
					<path id="&lt;Compound Path&gt;" class="s7" d="m909.35 92.58v108.63c0 56.08-34.41 84.8-82.09 84.8c-45.51 0-84.25-27.63-84.25-84.8v-108.63h35.49v108.63c0 34.14 19.51 52.29 49.04 52.29c29.53 0 46.33-19.78 46.33-52.29v-108.63h35.49z" />
					<path id="&lt;Compound Path&gt;" class="s7" d="m924.22 89.31h145.75v16.8l-98.34 138.98h98.34v33.86l-148.19 0v-20.59l96.17-135.45h-93.73v-33.59z" />
					<path id="&lt;Compound Path&gt;" class="s7" d="m1139.68 122.82h-60.14v-32.51c54.72 0 101.05 0 156.04 0v32.51h-60.14l0 157.13h-35.76l0-157.13z" />
					<path id="&lt;Compound Path&gt;" class="s7" d="m1333.54 168.6l50.39-78.29h43.07v1.63l-75.58 109.72v78.29h-35.76v-78.29l-72.87-109.72v-1.63h42.53l48.22 78.29z" />
				</g>
			</g>
		</g>
	</g>
</svg>