<svg version="1.2" baseProfile="tiny-ps" xmlns="http://www.w3.org/2000/svg" viewBox="0 0 1920 550" width="262" height="75">
	<title>logo-white</title>
	<style>
		tspan { white-space:pre }
		.s0 { fill: #448aff } 
		.s1 { fill: #3998d3 } 
		.s2 { fill: #88c946 } 
		.s3 { fill: #1c6836 } 
		.s4 { fill: #1d1d1d } 
		.s5 { fill: #2d2d2d } 
		.s6 { fill: #ffffff } 
		.s7 { fill: #2c2e35 } 
	</style>
	<g id="Layer 1">
		<g id="&lt;Group&gt;">
			<g id="&lt;Group&gt;">
				<g id="&lt;Group&gt;">
					<path id="&lt;Path&gt;" class="s0" d="m482.71 538.24h-405.41c-33.23 0-60.17-26.94-60.17-60.17v-405.41c0-33.23 26.94-60.17 60.17-60.17h405.41c33.23 0 60.17 26.94 60.17 60.17v405.41c0 33.23-26.94 60.17-60.17 60.17z" />
				</g>
				<g id="&lt;Group&gt;">
					<path id="&lt;Path&gt;" class="s1" d="m197.23 261.96c-0.22 0.87-0.36 1.67-0.51 2.47c0.07-0.58 0.14-1.09 0.29-1.67c0-0.22 0.07-0.51 0.22-0.8z" />
					<path id="&lt;Path&gt;" class="s2" d="m220.38 326.26c-0.58-0.44-1.16-0.87-1.67-1.38l0.07-0.22l1.6 1.6z" />
					<path id="&lt;Path&gt;" class="s3" d="m197.23 261.96c-0.22 0.87-0.36 1.67-0.51 2.47c0.07-0.58 0.14-1.09 0.29-1.67c0-0.22 0.07-0.51 0.22-0.8z" />
					<path id="&lt;Path&gt;" class="s3" d="m197.23 261.96c-0.22 0.87-0.36 1.67-0.51 2.47c0.07-0.58 0.14-1.09 0.29-1.67c0-0.22 0.07-0.51 0.22-0.8z" />
					<path id="&lt;Path&gt;" class="s2" d="m194.69 198.81l1.52-1.45l-1.52 1.52v-0.07z" />
					<path id="&lt;Path&gt;" class="s2" d="m220.38 224.51l-1.45 1.45l-0.15-0.15c0.51-0.44 1.02-0.87 1.6-1.31z" />
					<g id="&lt;Group&gt;">
						<path id="&lt;Path&gt;" class="s4" d="m351.02 275.38l-16.84 16.84l-8.78 8.85l-20.1 20.03c-23.15 23.15-59.73 24.89-84.91 5.15c-0.58-0.44-1.16-0.87-1.67-1.38c-1.45-1.16-2.83-2.4-4.14-3.77c-8.13-8.13-13.72-18.07-16.48-28.52c-0.07-0.15-0.07-0.22-0.07-0.36c-0.36-1.31-0.65-2.69-1.02-4.06v-0.07c-0.29-1.38-0.51-2.76-0.73-4.14c-0.22-1.89-0.44-3.85-0.51-5.81c-0.07-1.89-0.07-3.7 0-5.52c0.07-1.74 0.22-3.56 0.44-5.3c0.07-0.14 0.07-0.29 0.07-0.44v-0.07c0.15-0.8 0.29-1.6 0.44-2.4c0.14-0.8 0.29-1.6 0.51-2.47c0-0.29 0.07-0.58 0.14-0.8c0.07-0.36 0.15-0.73 0.29-1.09c0.29-1.38 0.73-2.69 1.16-3.99c0.15-0.51 0.36-1.02 0.51-1.52c0-0.07 0.07-0.15 0.07-0.22c0.22-0.65 0.44-1.31 0.73-1.96c0.22-0.58 0.43-1.16 0.73-1.74c0-0.07 0.07-0.07 0.07-0.14c0.44-1.09 0.87-2.1 1.38-3.19c0.36-0.8 0.8-1.6 1.16-2.4c0.22-0.44 0.51-0.87 0.73-1.38c0.22-0.36 0.43-0.8 0.65-1.16c0.22-0.44 0.44-0.87 0.73-1.23c0.22-0.36 0.51-0.8 0.73-1.16c0.43-0.58 0.8-1.23 1.23-1.81c0.87-1.23 1.74-2.47 2.76-3.7c0.58-0.73 1.16-1.45 1.81-2.18c0.8-0.87 1.6-1.74 2.47-2.61c1.31-1.38 2.76-2.61 4.21-3.85c0.51-0.44 1.02-0.87 1.6-1.31c11.54-9.14 25.55-13.64 39.55-13.64c16.4 0 32.88 6.24 45.36 18.8l20.03 20.03l25.69 25.69z" />
					</g>
					<g id="&lt;Group&gt;">
						<path id="&lt;Path&gt;" class="s5" d="m439.42 454.5c-25.11 25.11-65.76 25.11-90.79 0l-128.24-128.24c25.18 19.74 61.76 18 84.91-5.15l20.1-20.03l8.78-8.85l16.84-16.84l88.4 88.4c25.04 25.04 25.04 65.68 0 90.72z" />
					</g>
					<g id="&lt;Group&gt;">
						<path id="&lt;Path&gt;" class="s6" d="m196.28 353.48l119.82 119.82h-143.7c-38.97 0-70.62-31.57-70.62-70.62v-254.6c0-39.05 31.64-70.69 70.62-70.69h143.7l-119.9 119.97l-1.52 1.52l-5.73 5.73c-2.76 2.69-5.23 5.59-7.69 8.71c-1.52 1.81-2.9 3.63-4.14 5.59c-1.16 1.6-2.25 3.19-2.9 4.35c-0.36 0.58-0.73 1.23-1.09 1.89c-0.87 1.45-1.74 2.98-2.47 4.5c-0.58 1.02-1.45 2.61-2.25 4.57c-0.43 0.94-0.8 1.74-1.16 2.69c-0.8 1.89-1.52 3.77-2.18 5.66c-2.25 6.24-3.85 12.7-4.72 19.16l-0.36 2.61v0.58c-0.22 2.1-0.44 4.14-0.44 6.1c-0.15 2.83-0.15 5.66-0.07 8.42c0.15 2.9 0.44 5.81 0.73 8.56l0.15 0.87c0.87 6.53 2.47 12.99 4.72 19.3c0.65 1.89 1.38 3.77 2.18 5.66c1.09 2.76 2.18 5.01 3.05 6.6c0.8 1.67 1.74 3.34 2.69 4.94c0.44 0.87 0.94 1.67 1.52 2.54c0.87 1.45 1.81 2.83 2.9 4.43c3.27 4.79 7.04 9.29 11.47 13.79l5.81 5.81l1.6 1.52z" />
					</g>
					<path id="&lt;Path&gt;" class="s7" d="m197.23 261.96c-0.22 0.87-0.36 1.67-0.51 2.47c0.07-0.58 0.14-1.09 0.29-1.67c0-0.22 0.07-0.51 0.22-0.8z" />
					<path id="&lt;Path&gt;" class="s7" d="m198.02 292.22c-0.07-0.07-0.15-0.22-0.15-0.29c-0.22-0.58-0.36-1.16-0.44-1.74c-0.15-0.73-0.29-1.38-0.43-2.03c0.36 1.38 0.65 2.76 1.02 4.06z" />
					<g id="&lt;Group&gt;">
						<path id="&lt;Path&gt;" class="s5" d="m458.21 141.62c0 16.4-6.31 32.8-18.8 45.36l-62.71 62.71v0.07l-25.69 25.62l-25.69-25.69l-20.03-20.03c-12.48-12.56-28.96-18.8-45.36-18.8c-14.01 0-28.02 4.5-39.55 13.64l128.24-128.24c25.04-25.11 65.68-25.11 90.79 0c12.48 12.56 18.8 28.96 18.8 45.36z" />
					</g>
				</g>
			</g>
			<g id="&lt;Group&gt;">
				<g id="&lt;Group&gt;">
					<path id="&lt;Compound Path&gt;" class="s4" d="m810.31 155.1l-105.32 113.44l114.12 119.54v2.71h-55.2l-99.22-104.98v104.98h-44.7v-237.05h44.7v100.24l90.08-100.24h55.54v1.35z" />
					<path id="&lt;Compound Path&gt;" fill-rule="evenodd" class="s4" d="m1039.62 389.93h-53.17l-69.08-79.24h-43.01v79.24h-44.7v-237.38c37.59 0 75.18 0.34 112.77 0.34c55.87 0.34 85.34 37.59 85.34 78.56c0 32.51-14.9 65.36-59.94 74.5l71.79 80.93v3.05zm-165.25-195.39v75.85h68.07c28.45 0 40.64-18.96 40.64-37.93c0-18.96-12.53-37.93-40.64-37.93h-68.07z" />
					<path id="&lt;Compound Path&gt;" class="s4" d="m1252.93 155.72v135.79c0 70.1-43.01 105.99-102.61 105.99c-56.89 0-105.32-34.54-105.32-105.99v-135.79h44.36v135.79c0 42.67 24.38 65.36 61.29 65.36c36.91 0 57.91-24.72 57.91-65.36v-135.79h44.36z" />
					<path id="&lt;Compound Path&gt;" class="s4" d="m1271.53 151.64h182.19v20.99l-122.93 173.72h122.93v42.33h-185.23v-25.74l120.22-169.32h-117.17v-41.99z" />
					<path id="&lt;Compound Path&gt;" class="s4" d="m1540.84 193.52h-75.18v-40.64c68.4 0 126.31 0 195.06 0v40.64h-75.18v196.41h-44.7v-196.41z" />
					<path id="&lt;Compound Path&gt;" class="s4" d="m1783.17 250.75l62.99-97.87h53.84v2.03l-94.48 137.15v97.87h-44.7v-97.87l-91.09-137.15v-2.03h53.17l60.28 97.87z" />
				</g>
			</g>
		</g>
	</g>
</svg>